<mxfile host="Electron" modified="2023-06-01T23:19:39.618Z" agent="Mozilla/5.0 (Windows NT 10.0; Win64; x64) AppleWebKit/537.36 (KHTML, like Gecko) draw.io/21.2.8 Chrome/112.0.5615.165 Electron/24.2.0 Safari/537.36" etag="I8l8hCK-DDp-UPwkC_yi" version="21.2.8" type="device">
  <diagram name="Page-1" id="TH4f0s2Vycyu06m8um0J">
    <mxGraphModel dx="720" dy="1599" grid="1" gridSize="10" guides="1" tooltips="1" connect="1" arrows="1" fold="1" page="1" pageScale="1" pageWidth="827" pageHeight="1169" math="0" shadow="0">
      <root>
        <mxCell id="0" />
        <mxCell id="1" parent="0" />
        <mxCell id="F4g5yarwqLXPqGOdpC7H-1" value="" style="rounded=0;whiteSpace=wrap;html=1;" vertex="1" parent="1">
          <mxGeometry x="270" y="-80" width="330" height="300" as="geometry" />
        </mxCell>
        <mxCell id="F4g5yarwqLXPqGOdpC7H-2" value="Administrator" style="shape=umlActor;verticalLabelPosition=bottom;verticalAlign=top;html=1;outlineConnect=0;" vertex="1" parent="1">
          <mxGeometry x="170" y="100" width="30" height="60" as="geometry" />
        </mxCell>
        <mxCell id="F4g5yarwqLXPqGOdpC7H-6" value="Login into Account" style="ellipse;whiteSpace=wrap;html=1;" vertex="1" parent="1">
          <mxGeometry x="465" y="-70" width="120" height="60" as="geometry" />
        </mxCell>
        <mxCell id="F4g5yarwqLXPqGOdpC7H-13" style="edgeStyle=orthogonalEdgeStyle;rounded=0;orthogonalLoop=1;jettySize=auto;html=1;dashed=1;entryX=0.5;entryY=1;entryDx=0;entryDy=0;" edge="1" parent="1" source="F4g5yarwqLXPqGOdpC7H-7" target="F4g5yarwqLXPqGOdpC7H-6">
          <mxGeometry relative="1" as="geometry">
            <mxPoint x="450" y="10" as="targetPoint" />
            <Array as="points" />
          </mxGeometry>
        </mxCell>
        <mxCell id="F4g5yarwqLXPqGOdpC7H-7" value="Access Personal&lt;br&gt;&amp;nbsp;Informations" style="ellipse;whiteSpace=wrap;html=1;" vertex="1" parent="1">
          <mxGeometry x="300" y="120" width="120" height="60" as="geometry" />
        </mxCell>
        <mxCell id="F4g5yarwqLXPqGOdpC7H-8" value="Internet User" style="shape=umlActor;verticalLabelPosition=bottom;verticalAlign=top;html=1;outlineConnect=0;" vertex="1" parent="1">
          <mxGeometry x="170" y="-30" width="30" height="60" as="geometry" />
        </mxCell>
        <mxCell id="F4g5yarwqLXPqGOdpC7H-18" value="Modify Personal Informations" style="ellipse;whiteSpace=wrap;html=1;" vertex="1" parent="1">
          <mxGeometry x="280" y="20" width="120" height="60" as="geometry" />
        </mxCell>
        <mxCell id="F4g5yarwqLXPqGOdpC7H-15" value="&amp;lt;&amp;lt;Include&amp;gt;&amp;gt;" style="text;html=1;strokeColor=none;fillColor=none;align=center;verticalAlign=middle;whiteSpace=wrap;rounded=0;" vertex="1" parent="1">
          <mxGeometry x="400" y="-15" width="60" height="30" as="geometry" />
        </mxCell>
        <mxCell id="F4g5yarwqLXPqGOdpC7H-26" value="" style="endArrow=none;html=1;rounded=0;exitX=0;exitY=0.5;exitDx=0;exitDy=0;" edge="1" parent="1" source="F4g5yarwqLXPqGOdpC7H-7" target="F4g5yarwqLXPqGOdpC7H-2">
          <mxGeometry width="50" height="50" relative="1" as="geometry">
            <mxPoint x="330" y="140" as="sourcePoint" />
            <mxPoint x="380" y="90" as="targetPoint" />
          </mxGeometry>
        </mxCell>
        <mxCell id="F4g5yarwqLXPqGOdpC7H-27" value="" style="endArrow=none;html=1;rounded=0;exitX=0;exitY=0.5;exitDx=0;exitDy=0;" edge="1" parent="1" source="F4g5yarwqLXPqGOdpC7H-6" target="F4g5yarwqLXPqGOdpC7H-8">
          <mxGeometry width="50" height="50" relative="1" as="geometry">
            <mxPoint x="330" y="140" as="sourcePoint" />
            <mxPoint x="380" y="90" as="targetPoint" />
          </mxGeometry>
        </mxCell>
        <mxCell id="F4g5yarwqLXPqGOdpC7H-28" value="" style="endArrow=none;html=1;rounded=0;entryX=0;entryY=0.5;entryDx=0;entryDy=0;" edge="1" parent="1" target="F4g5yarwqLXPqGOdpC7H-18">
          <mxGeometry width="50" height="50" relative="1" as="geometry">
            <mxPoint x="200" y="130" as="sourcePoint" />
            <mxPoint x="380" y="90" as="targetPoint" />
          </mxGeometry>
        </mxCell>
        <mxCell id="F4g5yarwqLXPqGOdpC7H-29" style="edgeStyle=orthogonalEdgeStyle;rounded=0;orthogonalLoop=1;jettySize=auto;html=1;dashed=1;entryX=0.257;entryY=0.986;entryDx=0;entryDy=0;entryPerimeter=0;exitX=0.5;exitY=0;exitDx=0;exitDy=0;" edge="1" parent="1" source="F4g5yarwqLXPqGOdpC7H-18" target="F4g5yarwqLXPqGOdpC7H-6">
          <mxGeometry relative="1" as="geometry">
            <mxPoint x="580" y="220" as="sourcePoint" />
            <mxPoint x="510" y="30" as="targetPoint" />
            <Array as="points">
              <mxPoint x="340" y="10" />
              <mxPoint x="496" y="10" />
            </Array>
          </mxGeometry>
        </mxCell>
        <mxCell id="F4g5yarwqLXPqGOdpC7H-30" value="&amp;lt;&amp;lt;Include&amp;gt;&amp;gt;" style="text;html=1;strokeColor=none;fillColor=none;align=center;verticalAlign=middle;whiteSpace=wrap;rounded=0;" vertex="1" parent="1">
          <mxGeometry x="449" y="125" width="60" height="30" as="geometry" />
        </mxCell>
      </root>
    </mxGraphModel>
  </diagram>
</mxfile>
